<svg width="120" height="120" viewBox="0 0 120 120" fill="none" xmlns="http://www.w3.org/2000/svg">
<path d="M4.75833 51.0121H0V68.5819H4.75833V51.0121Z" fill="#E0E0E0"/>
<path d="M14.085 51.012H9.32666V68.5818H14.085V51.012Z" fill="#E0E0E0"/>
<path d="M18.4387 51.012H18.7535C21.2064 51.012 23.1971 52.9878 23.1971 55.4225V68.5818H18.4387V51.012Z" fill="#E0E0E0"/>
<path d="M71.7429 51.0121H66.9846V68.5819H71.7429V51.0121Z" fill="#E0E0E0"/>
<path d="M57.7705 64.2181C57.5941 64.8415 57.3614 65.4211 57.071 65.9585C56.779 66.4928 56.4277 66.9577 56.0201 67.3517C55.608 67.7411 55.1336 68.0506 54.5952 68.2694C54.0538 68.4898 53.4471 68.6 52.7734 68.6C52.6502 68.6 52.4997 68.597 52.3248 68.5894C52.1499 68.5819 51.9659 68.5653 51.7728 68.5381C51.5827 68.5124 51.3926 68.4747 51.204 68.4309C51.0154 68.3872 50.8543 68.3283 50.7159 68.2604C50.5775 68.1925 50.4649 68.0974 50.3752 67.9751C50.2885 67.8543 50.2749 67.7064 50.3357 67.5298L51.1295 64.7479C51.2055 64.4732 51.3743 64.3358 51.6359 64.3358C51.718 64.3358 51.8047 64.3509 51.8868 64.3766C51.9735 64.4023 52.0678 64.4174 52.1742 64.4174C52.4358 64.4174 52.6791 64.3389 52.9042 64.1834C53.1308 64.0279 53.2859 63.794 53.3695 63.4815L55.6688 55.3819C55.8453 54.7585 56.0764 54.1774 56.3653 53.64C56.6528 53.1057 57.001 52.6407 57.4162 52.2498C57.8298 51.8573 58.3043 51.5509 58.8411 51.3306C59.3764 51.1117 59.9862 51 60.6675 51C60.7678 51 60.888 51.0015 61.0309 51.006C61.1739 51.0106 61.3229 51.0226 61.4795 51.0408C61.6362 51.0589 61.7958 51.0815 61.957 51.1072C62.1182 51.1343 62.2688 51.1706 62.4148 51.2173C62.5091 51.2475 62.6033 51.2868 62.7022 51.3306C62.8025 51.3773 62.8892 51.4347 62.9607 51.5087C63.0337 51.5796 63.0854 51.6611 63.1173 51.7532C63.1478 51.8423 63.1432 51.9494 63.1037 52.0732L62.3098 54.8551C62.2262 55.1298 62.0574 55.2672 61.805 55.2672C61.7213 55.2672 61.6346 55.2536 61.5449 55.2264C61.4582 55.2008 61.3609 55.1872 61.2529 55.1872C60.9914 55.1872 60.7511 55.2672 60.5291 55.4272C60.307 55.5872 60.1535 55.8196 60.0683 56.1215L57.769 64.2226L57.7705 64.2181Z" fill="#E0E0E0"/>
<path d="M41.0093 51.0121V52.4219C39.6239 51.5298 37.9709 51.0121 36.2008 51.0121C31.3132 51.0121 27.3547 54.9457 27.3547 59.797C27.3547 64.6483 31.3132 68.5819 36.2008 68.5819C37.9709 68.5819 39.6224 68.0642 41.0093 67.1721V68.5819H45.7676V51.0121H41.0093ZM36.0137 65.0045C33.1167 65.0045 30.7672 62.6725 30.7672 59.797C30.7672 56.9215 33.1167 54.5894 36.0137 54.5894C38.9107 54.5894 41.2602 56.9215 41.2602 59.797C41.2602 62.6725 38.9107 65.0045 36.0137 65.0045Z" fill="#E0E0E0"/>
<path d="M84.0061 51.0121C79.1185 51.0121 75.1555 54.9457 75.1555 59.797C75.1555 64.6483 79.1185 68.5819 84.0061 68.5819C88.8937 68.5819 92.8567 64.6483 92.8567 59.797C92.8567 54.9457 88.8937 51.0121 84.0061 51.0121ZM83.9727 64.9698C81.0757 64.9698 78.7262 62.6377 78.7262 59.7623C78.7262 56.8868 81.0757 54.5547 83.9727 54.5547C86.8696 54.5547 89.2191 56.8868 89.2191 59.7623C89.2191 62.6377 86.8696 64.9698 83.9727 64.9698Z" fill="#E0E0E0"/>
<path d="M101.561 51.0135H96.8027V68.5834H101.561V51.0135Z" fill="#E0E0E0"/>
<path d="M110.888 51.0137H106.129V68.5835H110.888V51.0137Z" fill="#E0E0E0"/>
<path d="M115.241 51.0137H120V64.1729C120 66.6076 118.009 68.5835 115.556 68.5835H115.241V51.0137Z" fill="#E0E0E0"/>
</svg>
